<svg width="48" height="48" viewBox="0 0 48 48" fill="none" xmlns="http://www.w3.org/2000/svg">
<path d="M16.1968 14.3791C18.7184 15.9714 22.0567 14.5887 22.7138 11.6797C23.0232 10.3099 24.975 10.3099 25.2844 11.6797C25.9415 14.5887 29.2797 15.9714 31.8013 14.3791C32.9887 13.6293 34.3689 15.0094 33.6191 16.1968C32.0267 18.7184 33.4095 22.0567 36.3185 22.7138C37.6883 23.0232 37.6883 24.975 36.3185 25.2844C33.4095 25.9415 32.0267 29.2797 33.6191 31.8013C34.3689 32.9887 32.9887 34.3689 31.8013 33.6191C29.2797 32.0267 25.9415 33.4095 25.2844 36.3185C24.975 37.6883 23.0232 37.6883 22.7138 36.3185C22.0567 33.4095 18.7184 32.0267 16.1968 33.6191C15.0094 34.3689 13.6293 32.9887 14.3791 31.8013C15.9714 29.2797 14.5887 25.9415 11.6797 25.2844C10.3099 24.975 10.3099 23.0232 11.6797 22.7138C14.5887 22.0567 15.9714 18.7184 14.3791 16.1968C13.6293 15.0094 15.0094 13.6293 16.1968 14.3791Z" stroke="black" stroke-width="3"></path>
<circle cx="24" cy="24" r="3" fill="black"></circle>
</svg>
