<svg width="48" height="48" viewBox="0 0 48 48" fill="none" xmlns="http://www.w3.org/2000/svg">
<path d="M15.3086 18.0402C14.3901 17.7976 13.4282 17.7692 12.4969 17.957C11.5657 18.1449 10.69 18.544 9.93737 19.1237C9.18473 19.7033 8.57523 20.4481 8.15582 21.3005C7.73642 22.1529 7.51831 23.0902 7.51831 24.0402C7.51831 24.9902 7.73642 25.9275 8.15582 26.7799C8.57523 27.6323 9.18473 28.377 9.93737 28.9567C10.69 29.5364 11.5657 29.9355 12.4969 30.1234C13.4282 30.3112 14.3901 30.2828 15.3086 30.0402C13.7381 28.4379 12.8584 26.2838 12.8584 24.0402C12.8584 21.7966 13.7381 19.6424 15.3086 18.0402Z" fill="black"></path>
<path d="M23.04 30.8457C22.5387 30.9555 22.0274 31.0129 21.5143 31.0172C20.5204 31.0108 19.539 30.7946 18.6343 30.3829L17.8286 29.9372C17.5631 29.7681 17.3109 29.579 17.0743 29.3715C16.2918 28.7282 15.6615 27.9195 15.2287 27.0036C14.796 26.0877 14.5715 25.0873 14.5715 24.0743C14.5715 23.0613 14.796 22.0609 15.2287 21.145C15.6615 20.2291 16.2918 19.4204 17.0743 18.7772C17.3071 18.5446 17.5595 18.3324 17.8286 18.1429C18.0837 17.9713 18.3533 17.8222 18.6343 17.6972C19.5145 17.309 20.4666 17.1104 21.4286 17.1143C21.9373 17.1146 22.444 17.1779 22.9371 17.3029C22.0764 18.2679 21.4126 19.3918 20.9829 20.6115C20.8211 21.0345 20.695 21.4703 20.6057 21.9143C20.4478 22.6235 20.3674 23.3478 20.3657 24.0743C20.3664 24.7953 20.4469 25.5139 20.6057 26.2172C20.6973 26.6662 20.8234 27.1075 20.9829 27.5372C21.4461 28.7637 22.145 29.8877 23.04 30.8457Z" fill="black"></path>
<path d="M38.5714 24.0743C38.5668 26.2627 37.6943 28.36 36.1452 29.9059C34.5961 31.4518 32.497 32.32 30.3085 32.32C28.9131 32.3161 27.5427 31.9498 26.3314 31.2571C26.0416 31.1021 25.7612 30.9304 25.4914 30.7428C25.2684 30.5554 25.0566 30.3551 24.8571 30.1428C24.0002 29.3774 23.3146 28.4396 22.8451 27.3909C22.3757 26.3422 22.1331 25.2061 22.1331 24.0571C22.1331 22.9081 22.3757 21.7721 22.8451 20.7233C23.3146 19.6746 24.0002 18.7368 24.8571 17.9714C25.0753 17.7533 25.3103 17.5527 25.56 17.3714C25.8342 17.1828 26.1085 17.0286 26.4 16.8571C27.6513 16.1625 29.0627 15.8076 30.4937 15.828C31.9248 15.8483 33.3256 16.2431 34.5566 16.9731C35.7877 17.7031 36.8061 18.7427 37.5105 19.9886C38.2148 21.2345 38.5806 22.6431 38.5714 24.0743Z" fill="black"></path>
</svg>
