<svg width="24" height="24" viewBox="0 0 24 24" fill="none" xmlns="http://www.w3.org/2000/svg">
<path d="M4.94242 17.6085C4.37319 16.8751 3.93857 16.145 3.63857 15.4181C3.33857 14.6912 3.13857 13.8854 3.03857 13.0008H4.05012C4.15012 13.7341 4.33346 14.4299 4.60012 15.0883C4.86679 15.7466 5.21679 16.3508 5.65012 16.9008L4.94242 17.6085ZM3.03857 11.0008C3.14627 10.1162 3.3482 9.3136 3.64435 8.59308C3.9405 7.87257 4.37319 7.14564 4.94242 6.41231L5.65012 7.12001C5.21679 7.67001 4.86679 8.27097 4.60012 8.92291C4.33346 9.57482 4.15012 10.2674 4.05012 11.0008H3.03857ZM10.9501 20.9508C9.98859 20.8123 9.16455 20.5931 8.478 20.2931C7.79147 19.9931 7.07961 19.5687 6.34242 19.02L7.05012 18.3008C7.59499 18.7213 8.19467 19.0764 8.84917 19.3662C9.50366 19.6559 10.204 19.8508 10.9501 19.9508V20.9508ZM7.10012 5.68156L6.3809 4.96231C7.11807 4.41359 7.82992 3.99244 8.51647 3.69886C9.20301 3.40526 10.0309 3.18923 11.0001 3.05078V4.05078C10.2501 4.15078 9.54692 4.34245 8.8905 4.62578C8.2341 4.90911 7.63731 5.26104 7.10012 5.68156ZM10.0001 15.5777V8.42386L15.5771 12.0008L10.0001 15.5777ZM13.0001 20.9508V19.9508C15.0168 19.6674 16.6876 18.7758 18.0126 17.2758C19.3376 15.7758 20.0001 14.0174 20.0001 12.0008C20.0001 9.98411 19.3376 8.22578 18.0126 6.72578C16.6876 5.22578 15.0168 4.33411 13.0001 4.05078V3.05078C15.2976 3.29565 17.2052 4.27001 18.7232 5.97386C20.2411 7.67771 21.0001 9.68668 21.0001 12.0008C21.0001 14.3149 20.2411 16.3239 18.7232 18.0277C17.2052 19.7316 15.2976 20.7059 13.0001 20.9508Z" fill="white"></path>
</svg>
