<svg width="48" height="49" viewBox="0 0 48 49" fill="none" xmlns="http://www.w3.org/2000/svg">
<path d="M8 34.957C6.89543 34.957 6 35.8525 6 36.957C6 38.0616 6.89543 38.957 8 38.957H16C17.1046 38.957 18 38.0616 18 36.957C18 35.8525 17.1046 34.957 16 34.957H8ZM8 10.957C6.89543 10.957 6 11.8525 6 12.957C6 14.0616 6.89543 14.957 8 14.957H24C25.1046 14.957 26 14.0616 26 12.957C26 11.8525 25.1046 10.957 24 10.957H8ZM24 42.957C25.1046 42.957 26 42.0616 26 40.957V38.957H40C41.1046 38.957 42 38.0616 42 36.957C42 35.8525 41.1046 34.957 40 34.957H26V32.957C26 31.8525 25.1046 30.957 24 30.957C22.8954 30.957 22 31.8525 22 32.957V40.957C22 42.0616 22.8954 42.957 24 42.957ZM16 18.957C14.8954 18.957 14 19.8525 14 20.957V22.957H8C6.89543 22.957 6 23.8525 6 24.957C6 26.0616 6.89543 26.957 8 26.957H14V28.957C14 30.0616 14.8954 30.957 16 30.957C17.1046 30.957 18 30.0616 18 28.957V20.957C18 19.8525 17.1046 18.957 16 18.957ZM40 26.957C41.1046 26.957 42 26.0616 42 24.957C42 23.8525 41.1046 22.957 40 22.957H24C22.8954 22.957 22 23.8525 22 24.957C22 26.0616 22.8954 26.957 24 26.957H40ZM30 16.957C30 18.0616 30.8954 18.957 32 18.957C33.1046 18.957 34 18.0616 34 16.957V14.957H40C41.1046 14.957 42 14.0616 42 12.957C42 11.8525 41.1046 10.957 40 10.957H34V8.95703C34 7.85246 33.1046 6.95703 32 6.95703C30.8954 6.95703 30 7.85246 30 8.95703V16.957Z" fill="black"></path>
</svg>
