<svg width="48" height="48" viewBox="0 0 48 48" fill="none" xmlns="http://www.w3.org/2000/svg">
<path d="M15.5693 18.4826L22.3338 12.4382C22.9781 11.8624 24.0001 12.3198 24.0001 13.1838V34.6365C24.0001 35.5274 22.9229 35.9736 22.293 35.3436L15.5859 28.6365C15.2108 28.2615 14.7021 28.0508 14.1717 28.0508H12.4917C11.3871 28.0508 10.4917 27.1553 10.4917 26.0508V20.9912C10.4917 19.8866 11.3871 18.9912 12.4917 18.9912H14.2367C14.7283 18.9912 15.2027 18.8101 15.5693 18.4826Z" fill="black"></path>
<path d="M30.7778 23.9996C30.7778 21.6341 29.5633 19.5663 27.7284 18.3584C27.4179 18.1541 27.0278 18.3919 27.0278 18.7636V29.2255C27.0278 29.596 27.4157 29.834 27.7261 29.6316C29.5623 28.4346 30.7778 26.366 30.7778 23.9996Z" fill="black"></path>
</svg>
