<svg width="48" height="48" viewBox="0 0 48 48" fill="none" xmlns="http://www.w3.org/2000/svg">
<path d="M13.673 10.9152C13.0879 10.3304 12.1395 10.3306 11.5545 10.9156V10.9156C10.9708 11.4993 10.9692 12.4452 11.5509 13.0309L16.2551 17.7667L15.5618 18.386C15.1953 18.7135 14.7209 18.8945 14.2294 18.8945H12.4971C11.393 18.8945 10.4978 19.7892 10.4971 20.8932L10.494 25.9013C10.4933 27.0063 11.3889 27.9025 12.494 27.9025H14.1618C14.6936 27.9025 15.2036 28.1144 15.5789 28.4913L22.395 35.3358C23.0244 35.9677 24.1036 35.522 24.1036 34.6301V25.5764L30.3736 31.8464C29.7033 32.3517 28.9763 32.7861 28.1975 33.1204C27.565 33.3919 27.1036 33.9856 27.1036 34.6739V34.6739C27.1036 35.6625 28.0242 36.3979 28.9458 36.0402C30.2449 35.5359 31.4488 34.8302 32.5186 33.9764L34.5363 35.9941C35.1202 36.5781 36.067 36.5781 36.6509 35.9941V35.9941C37.235 35.41 37.2349 34.463 36.6506 33.8791L13.673 10.9152ZM34.5591 23.4614C34.5591 24.6914 34.4397 26.004 34.0497 27.099L36.379 29.3802C37.1737 27.6685 37.4934 25.6792 37.4934 23.5942C37.4934 17.8717 34.0176 13.2033 29.0026 11.2898C28.0525 10.9273 27.1036 11.684 27.1036 12.7008V12.7008C27.1036 13.4173 27.5911 14.0322 28.2545 14.303C32.4728 16.0249 34.5591 20.362 34.5591 23.4614ZM24.0043 13.0737C24.0043 12.2109 22.985 11.753 22.3401 12.3262L20.7265 13.7601L24.0043 17.0361V13.0737ZM30.8536 23.4614C30.8536 20.8064 29.2394 18.517 27.0194 17.407V20.0342L30.8167 23.8346C30.8317 23.7146 30.8536 23.5814 30.8536 23.4614Z" fill="black"></path>
</svg>
