<svg width="24" height="24" viewBox="0 0 24 24" fill="none" xmlns="http://www.w3.org/2000/svg">
<path d="M9.31364 9.30723L10.1983 10.1918H7.88482C7.80789 10.1918 7.73737 10.2239 7.67327 10.288C7.60917 10.3521 7.57712 10.4226 7.57712 10.4995V13.4995C7.57712 13.5764 7.60917 13.647 7.67327 13.7111C7.73737 13.7752 7.80789 13.8072 7.88482 13.8072H9.88482C9.96174 13.8072 10.0322 13.7752 10.0963 13.7111C10.1604 13.647 10.1925 13.5764 10.1925 13.4995V13.2303H11.0771V13.6149C11.0771 13.9111 10.9717 14.1646 10.7608 14.3755C10.5499 14.5864 10.2963 14.6918 10.0002 14.6918H7.76942C7.47327 14.6918 7.21974 14.5864 7.00884 14.3755C6.79794 14.1646 6.69249 13.9111 6.69249 13.6149V10.3842C6.69249 10.088 6.79794 9.83445 7.00884 9.62355C7.21974 9.41267 7.47327 9.30723 7.76942 9.30723H9.31364ZM7.81749 4.99953H18.3848C18.8451 4.99953 19.2294 5.15369 19.5377 5.46203C19.846 5.77036 20.0002 6.15465 20.0002 6.6149V17.1822L19.0002 16.1822V6.6149C19.0002 6.43542 18.9425 6.28798 18.8271 6.1726C18.7117 6.05722 18.5643 5.99953 18.3848 5.99953H8.81749L7.81749 4.99953ZM17.3079 13.2303V13.6149C17.3079 13.7393 17.2883 13.8563 17.2492 13.9659C17.2101 14.0755 17.1515 14.172 17.0733 14.2553L16.3944 13.5765H16.4233V13.2303H17.3079ZM16.4233 10.8072V10.4995C16.4233 10.4226 16.3912 10.3521 16.3271 10.288C16.263 10.2239 16.1925 10.1918 16.1156 10.1918H14.1156C14.0387 10.1918 13.9681 10.2239 13.904 10.288C13.8399 10.3521 13.8079 10.4226 13.8079 10.4995V10.9899L12.9617 10.1438V10.1149C13.0258 9.88285 13.1537 9.69023 13.3454 9.53703C13.5371 9.38383 13.7553 9.30723 14.0002 9.30723H16.231C16.5271 9.30723 16.7806 9.41267 16.9915 9.62355C17.2024 9.83445 17.3079 10.088 17.3079 10.3842V10.8072H16.4233ZM5.08479 5.07838L6.00597 5.99953H5.61557C5.46174 5.99953 5.32071 6.06363 5.19249 6.19183C5.06429 6.32004 5.00019 6.46107 5.00019 6.6149V17.3842C5.00019 17.538 5.06429 17.679 5.19249 17.8072C5.32071 17.9354 5.46174 17.9995 5.61557 17.9995H16.579L1.88672 3.30723L2.60019 2.59375L21.8233 21.8168L21.1098 22.5303L17.579 18.9995H5.61557C5.15532 18.9995 4.77103 18.8454 4.46269 18.537C4.15436 18.2287 4.00019 17.8444 4.00019 17.3842V6.6149C4.00019 6.24952 4.09987 5.92676 4.29922 5.64663C4.49859 5.36651 4.76044 5.17709 5.08479 5.07838Z" fill="white"/>
</svg>
