<svg width="24" height="24" viewBox="0 0 24 24" fill="none" xmlns="http://www.w3.org/2000/svg">
<path d="M12 20.9999C10.891 20.9999 9.85159 20.7912 8.88173 20.3739C7.91186 19.9566 7.06442 19.3854 6.33942 18.6604C5.61442 17.9354 5.04327 17.088 4.62595 16.1181C4.20865 15.1483 4 14.1088 4 12.9999H5C5 14.9499 5.67917 16.604 7.0375 17.9624C8.39583 19.3207 10.05 19.9999 12 19.9999C13.95 19.9999 15.6042 19.3207 16.9625 17.9624C18.3208 16.604 19 14.9499 19 12.9999C19 11.0499 18.3208 9.39569 16.9625 8.03736C15.6042 6.67903 13.95 5.99986 12 5.99986H11.6192L13.2462 7.62679L12.5384 8.34601L9.6923 5.48064L12.5769 2.61523L13.2846 3.33446L11.6192 4.99986H12C13.109 4.99986 14.1484 5.20851 15.1183 5.62581C16.0881 6.04313 16.9356 6.61429 17.6606 7.33929C18.3856 8.06429 18.9567 8.91172 19.374 9.88158C19.7913 10.8515 20 11.8909 20 12.9999C20 14.1088 19.7913 15.1483 19.374 16.1181C18.9567 17.088 18.3856 17.9354 17.6606 18.6604C16.9356 19.3854 16.0881 19.9566 15.1183 20.3739C14.1484 20.7912 13.109 20.9999 12 20.9999Z" fill="white"/>
</svg>
