<svg width="48" height="48" viewBox="0 0 48 48" fill="none" xmlns="http://www.w3.org/2000/svg">
<path d="M12.885 23.4743C13.605 23.4743 14.235 24.1043 14.235 24.8243V31.1243C14.235 32.3843 15.225 33.3743 16.485 33.3743H31.785C33.045 33.3743 34.035 32.3843 34.035 31.1243V18.4343C34.035 17.1743 33.045 16.1843 31.785 16.1843H15.585L18.105 18.7043C18.645 19.2443 18.645 20.0543 18.105 20.5943C17.835 20.8643 17.475 20.9543 17.115 20.9543C16.755 20.9543 16.395 20.8643 16.125 20.5943L11.895 16.3643C11.445 15.9143 11.265 15.3743 11.265 14.7443C11.265 14.1143 11.535 13.5743 11.895 13.1243L16.125 8.89426C16.665 8.35426 17.475 8.35426 18.015 8.89426C18.555 9.43426 18.555 10.2443 18.015 10.7843L15.405 13.3943H31.785C34.485 13.3943 36.735 15.6443 36.735 18.3443V31.1243C36.735 33.8243 34.485 36.0743 31.785 36.0743H16.485C13.785 36.0743 11.535 33.8243 11.535 31.1243V24.8243C11.535 24.1043 12.075 23.4743 12.885 23.4743Z" fill="#0A0A0A"/>
</svg>
