<svg width="24" height="24" viewBox="0 0 24 24" fill="none" xmlns="http://www.w3.org/2000/svg">
<path d="M17.5577 19.0568C16.7338 19.0568 16.0375 18.7724 15.4686 18.2035C14.8998 17.6347 14.6154 16.9383 14.6154 16.1145C14.6154 15.2906 14.8998 14.5943 15.4686 14.0255C16.0375 13.4566 16.7338 13.1722 17.5577 13.1722C18.3815 13.1722 19.0779 13.4566 19.6467 14.0255C20.2156 14.5943 20.5 15.2906 20.5 16.1145C20.5 16.9383 20.2156 17.6347 19.6467 18.2035C19.0779 18.7724 18.3815 19.0568 17.5577 19.0568ZM17.5557 18.0568C18.0917 18.0568 18.5497 17.8674 18.9298 17.4886C19.3099 17.1097 19.5 16.6523 19.5 16.1164C19.5 15.5805 19.3106 15.1225 18.9318 14.7424C18.5529 14.3622 18.0955 14.1722 17.5596 14.1722C17.0237 14.1722 16.5657 14.3616 16.1856 14.7404C15.8054 15.1193 15.6154 15.5766 15.6154 16.1126C15.6154 16.6485 15.8048 17.1065 16.1836 17.4866C16.5625 17.8667 17.0198 18.0568 17.5557 18.0568ZM5 16.6145V15.6145H12.2308V16.6145H5ZM6.4423 10.826C5.61845 10.826 4.92211 10.5416 4.35327 9.97276C3.78442 9.40391 3.5 8.70756 3.5 7.88373C3.5 7.05988 3.78442 6.36353 4.35327 5.79468C4.92211 5.22583 5.61845 4.94141 6.4423 4.94141C7.26615 4.94141 7.9625 5.22583 8.53135 5.79468C9.1002 6.36353 9.38463 7.05988 9.38463 7.88373C9.38463 8.70756 9.1002 9.40391 8.53135 9.97276C7.9625 10.5416 7.26615 10.826 6.4423 10.826ZM6.44037 9.82603C6.97627 9.82603 7.43429 9.63661 7.81442 9.25778C8.19456 8.87895 8.38463 8.42157 8.38463 7.88566C8.38463 7.34976 8.19521 6.89174 7.81638 6.51161C7.43754 6.13147 6.98017 5.94141 6.44425 5.94141C5.90833 5.94141 5.45032 6.13082 5.0702 6.50966C4.69007 6.88849 4.5 7.34586 4.5 7.88178C4.5 8.41768 4.68942 8.8757 5.06825 9.25583C5.44708 9.63596 5.90446 9.82603 6.44037 9.82603ZM11.7692 8.38373V7.38371H19V8.38373H11.7692Z" fill="white"/>
</svg>
