<svg width="24" height="24" viewBox="0 0 24 24" fill="none" xmlns="http://www.w3.org/2000/svg">
<path d="M14.0769 19.4936V18.4436C15.4615 17.9589 16.5769 17.1256 17.423 15.9436C18.2692 14.7615 18.6922 13.4384 18.6922 11.9743C18.6922 10.5102 18.2692 9.18715 17.423 8.0051C16.5769 6.82305 15.4615 5.98972 14.0769 5.5051V4.45508C15.7333 4.98586 17.0833 5.93875 18.1269 7.31375C19.1705 8.68875 19.6923 10.2423 19.6923 11.9743C19.6923 13.7064 19.1705 15.2599 18.1269 16.6349C17.0833 18.0099 15.7333 18.9628 14.0769 19.4936ZM4.30762 13.9993V9.99933H7.73072L11.3076 6.42238V17.5763L7.73072 13.9993H4.30762ZM14.0769 15.307V8.64163C14.6423 9.0083 15.0721 9.49099 15.3663 10.0897C15.6605 10.6884 15.8076 11.325 15.8076 11.9993C15.8076 12.6698 15.6573 13.2971 15.3567 13.8811C15.056 14.465 14.6294 14.9404 14.0769 15.307ZM10.3076 8.84933L8.15764 10.9993H5.30764V12.9993H8.15764L10.3076 15.1493V8.84933Z" fill="white"/>
</svg>
