<svg width="48" height="48" viewBox="0 0 48 48" fill="none" xmlns="http://www.w3.org/2000/svg">
<path d="M15.5693 18.4826L22.3338 12.4382C22.9781 11.8624 24.0001 12.3198 24.0001 13.1838V34.6365C24.0001 35.5274 22.9229 35.9736 22.293 35.3436L15.5859 28.6365C15.2108 28.2615 14.7021 28.0508 14.1717 28.0508H12.4917C11.3871 28.0508 10.4917 27.1553 10.4917 26.0508V20.9912C10.4917 19.8866 11.3871 18.9912 12.4917 18.9912H14.2367C14.7283 18.9912 15.2027 18.8101 15.5693 18.4826Z" fill="black"/>
<path d="M30.7778 23.9996C30.7778 21.6341 29.5633 19.5663 27.7284 18.3584C27.4179 18.1541 27.0278 18.3919 27.0278 18.7636V29.2255C27.0278 29.596 27.4157 29.834 27.7261 29.6316C29.5623 28.4346 30.7778 26.366 30.7778 23.9996Z" fill="black"/>
<path d="M27.3073 10.6528C26.9981 10.5673 26.7 10.8054 26.7 11.1262V13.2171C26.7 13.4383 26.8458 13.6321 27.0555 13.7028C31.2069 15.102 34.2 19.031 34.2 23.655C34.2 28.279 31.2069 32.208 27.0555 33.6072C26.8458 33.6779 26.7 33.8717 26.7 34.0929V36.1838C26.7 36.5046 26.9981 36.7427 27.3073 36.6572C33.0144 35.0791 37.2 29.857 37.2 23.655C37.2 17.453 33.0144 12.2309 27.3073 10.6528Z" fill="black"/>
</svg>
